<svg width="716" height="350" viewBox="0 0 716 350" fill="none" xmlns="http://www.w3.org/2000/svg">
<path d="M49.6 10.53V50.22H43.93V15.63H41.78L30.5 50.22H19.95L8.20999 15.63H5.94V50.22H0.269989V10.53H12.29L24.03 45.12H26.3L37.58 10.53H49.6Z" fill="#EE494F"/>
<path d="M73.7 24.42L66.95 27.09V50.22H61.28V28.79L54.99 31.28V25.89L61.28 23.4V8.25999H66.95V21.7L73.7 19.04V24.42Z" fill="#EE494F"/>
<path d="M109.59 19.03L98.36 45.68C94.5 54.75 90.08 60.99 79.14 60.99V55.89C85.72 55.89 89.46 52.49 91.95 46.82H88.38L75.79 19.04H81.91L92.06 41.72H94.04L103.62 19.04H109.59V19.03Z" fill="#EE494F"/>
<path d="M144.86 32.07V50.21H139.19V33.2C139.19 26.57 135.79 23.28 130.12 23.28C124.45 23.28 119.91 26.57 119.91 33.2V50.21H114.24V19.03H119.91V29.69C121.04 23 125.41 18.46 132.67 18.46C140.6 18.47 144.86 23.63 144.86 32.07Z" fill="#EE494F"/>
<path d="M186.64 35.14C186.64 47.1 183.24 50.79 179.1 50.79C176.32 50.79 173.88 49.15 173.88 45.12V38.2H171.04C171.04 46.42 167.75 50.79 159.98 50.79C154.54 50.79 151.08 47.9 151.08 43.59C151.08 37.13 157.71 34.57 165.82 33.78C157.88 33.38 153.46 31.68 153.46 27.03C153.46 22.27 158.28 18.47 165.99 18.47C174.27 18.47 179.54 22.5 179.54 31.51V43.42C179.54 45.29 180.33 45.97 181.41 45.97C183 45.97 186.06 44.55 186.06 34.52C186.06 29.13 185.15 24.26 183.96 19.04H184.53C185.68 24.25 186.64 28.9 186.64 35.14ZM173.89 32.07C173.89 27.82 172.19 23.28 164.14 23.28C159.38 23.28 156.03 24.92 156.03 27.99C156.03 32.02 160.28 33.43 170.49 33.43H173.89V32.07ZM170.48 38.2C160.9 38.2 156.48 40.24 156.48 44.15C156.48 46.76 158.18 48.8 161.98 48.8C166.4 48.8 170.48 45.97 170.48 38.2Z" fill="#EE494F"/>
<path d="M217.43 30.94H211.76C211.76 27.14 210.4 23.85 206.09 23.85C201.89 23.85 197.87 27.14 197.87 38.88V50.22H192.2V19.6H197.87V32.7C198.83 23.34 202.18 19.04 208.08 19.04C214.88 19.03 217.43 24.19 217.43 30.94Z" fill="#EE494F"/>
<path d="M249.19 40.69C249.19 46.59 243.41 50.78 233.6 50.78C224.53 50.78 219.43 46.36 219.43 40.91C219.43 38.13 220.62 35.69 223.11 33.82C221.35 32.57 220.28 30.76 220.28 28.04C220.28 23.11 225.44 18.46 234.79 18.46C244.66 18.46 247.83 23.62 248.06 29.23C240.63 29.23 234.91 29.85 230.65 31.04C231.78 31.21 233.09 31.38 234.62 31.55C245.27 32.7 249.19 34.97 249.19 40.69ZM243.52 41.71C243.52 38.71 241.31 37.63 233.31 36.66C229.79 36.21 226.28 35.7 223.78 34.28C221.97 35.81 221.12 37.68 221.12 39.72C221.12 44.6 226.39 47.09 231.84 47.09C240.17 47.1 243.52 44.26 243.52 41.71ZM229.4 30.77C232.8 29.75 237.11 29.07 242.33 28.79C242.05 26.24 240.18 23.29 233.94 23.29C228.95 23.29 225.95 25.22 225.95 27.66C225.94 29.3 227.07 30.2 229.4 30.77Z" fill="#EE494F"/>
<path d="M286.04 37.74C286.04 46.36 282.3 50.78 275.95 50.78C270 50.78 266.76 46.92 266.76 41.82C266.76 36.15 270.79 31.5 278.67 30.03C278.61 26.51 276.35 23.28 270.73 23.28C265.06 23.28 261.09 26.57 261.09 33.2V50.21H255.42V8.25H261.09V29.46C262.11 22.94 266.08 18.46 273.28 18.46C281.22 18.46 284.34 23.62 284.34 29.52V29.8C272.83 29.8 270.39 35.7 270.39 39.44C270.39 43.41 273.17 45.68 277.02 45.68C280.71 45.68 285.47 43.53 285.47 37.74H286.04Z" fill="#EE494F"/>
<path d="M324.43 35.14C324.43 47.1 321.03 50.79 316.89 50.79C314.11 50.79 311.67 49.15 311.67 45.12V38.2H308.83C308.83 46.42 305.54 50.79 297.77 50.79C292.33 50.79 288.87 47.9 288.87 43.59C288.87 37.13 295.5 34.57 303.61 33.78C295.67 33.38 291.25 31.68 291.25 27.03C291.25 22.27 296.07 18.47 303.78 18.47C312.06 18.47 317.33 22.5 317.33 31.51V43.42C317.33 45.29 318.12 45.97 319.2 45.97C320.79 45.97 323.85 44.55 323.85 34.52C323.85 29.13 322.94 24.26 321.75 19.04H322.32C323.46 24.25 324.43 28.9 324.43 35.14ZM311.67 32.07C311.67 27.82 309.97 23.28 301.92 23.28C297.16 23.28 293.81 24.92 293.81 27.99C293.81 32.02 298.06 33.43 308.27 33.43H311.67V32.07ZM308.27 38.2C298.69 38.2 294.27 40.24 294.27 44.15C294.27 46.76 295.97 48.8 299.77 48.8C304.19 48.8 308.27 45.97 308.27 38.2Z" fill="#EE494F"/>
<path d="M379.88 64.57V0.440002H380.45V64.57H379.88Z" fill="#EE494F"/>
<path d="M426.5 21.31L427.62 20.5V27.51C427.62 28.19 427.99 28.79 427.99 28.79H426.5C426.5 28.79 426.87 28.19 426.87 27.51V22.25C426.86 21.58 426.5 21.31 426.5 21.31ZM426.54 17.68C426.54 17.33 426.85 17.02 427.2 17.02C427.55 17.02 427.86 17.33 427.86 17.68C427.86 18.03 427.55 18.34 427.2 18.34C426.85 18.33 426.54 18.03 426.54 17.68Z" fill="#EE494F"/>
<path d="M446.46 20.5C446.46 20.5 446.23 20.77 445.84 21.78L443.1 28.91H442.89L440.53 22.84L438.19 28.91H437.98L435.22 21.78C434.81 20.76 434.6 20.5 434.6 20.5H435.89C435.89 20.5 435.74 21.04 436.03 21.78L438.39 27.83L440.42 22.54L440.13 21.79C439.74 20.77 439.51 20.51 439.51 20.51H440.82C440.82 20.51 440.67 21.05 440.96 21.79L443.3 27.88L445.64 21.79C445.93 21.06 445.39 20.51 445.39 20.51H446.46V20.5Z" fill="#EE494F"/>
<path d="M453.42 26.99C453.42 24.98 447.74 24.63 447.74 22.55C447.74 20.91 449.32 20.27 450.72 20.27C453.02 20.27 453.73 21.31 453.73 21.31L453.23 21.95C453.23 21.95 452.88 20.38 450.52 20.44C449.59 20.46 448.36 21.02 448.36 22.1C448.36 24.09 454.21 24.32 454.21 26.64C454.21 28.73 452.1 29.02 450.77 29.02C448.55 29.02 447.76 27.86 447.76 27.86L448.26 27.24C448.26 27.24 448.84 28.86 450.97 28.84C452.2 28.83 453.42 28.27 453.42 26.99Z" fill="#EE494F"/>
<path d="M456.38 21.31L457.5 20.5V21.85C457.5 21.85 458.43 20.27 460.61 20.27C462.99 20.27 464.47 22.22 464.47 24.64C464.47 27.07 463 29.03 460.26 29.03C458.54 29.03 457.5 27.85 457.5 27.85V31.89C457.5 32.59 457.87 33.18 457.87 33.18H456.38C456.38 33.18 456.75 32.58 456.75 31.89V22.6C456.75 21.89 456.38 21.31 456.38 21.31ZM457.5 22.28V25.78C457.5 27.81 458.93 28.81 460.57 28.79C462.39 28.77 463.56 27.11 463.56 24.87C463.56 22.24 462.03 20.52 460.26 20.54C458.31 20.56 457.5 22.28 457.5 22.28Z" fill="#EE494F"/>
<path d="M466.26 24.63C466.26 22.21 468.1 20.26 470.43 20.26C472.79 20.26 474.78 22.21 474.78 24.63C474.78 27.06 472.94 29.02 470.59 29.02C468.25 29.02 466.26 27.07 466.26 24.63ZM467.15 25.06C467.44 27.3 469.08 28.98 471.19 28.75C472.93 28.56 474.18 26.53 473.9 24.29C473.61 22.05 471.97 20.35 469.86 20.54C468.11 20.69 466.86 22.82 467.15 25.06ZM469.81 19.34L472.05 17.27L472.69 17.97L469.91 19.44L469.81 19.34Z" fill="#EE494F"/>
<path d="M479 27.45C479 28.13 479.35 28.78 479.35 28.78H477.9C477.9 28.78 478.25 28.12 478.25 27.45V22.56L477.07 23.24L476.95 23.01L478.24 22.28V18.24C478.24 17.54 477.89 16.95 477.89 16.95L478.99 16.14V21.86L480.09 21.22L480.21 21.43L478.99 22.13V27.45H479Z" fill="#EE494F"/>
<path d="M482.92 21.31L484.04 20.5V21.85C484.04 21.85 484.97 20.27 487.15 20.27C489.53 20.27 491.02 22.22 491.02 24.64C491.02 27.07 489.55 29.03 486.81 29.03C485.09 29.03 484.05 27.85 484.05 27.85V31.89C484.05 32.59 484.42 33.18 484.42 33.18H482.93C482.93 33.18 483.3 32.58 483.3 31.89V22.6C483.29 21.89 482.92 21.31 482.92 21.31ZM484.04 22.28V25.78C484.04 27.81 485.47 28.81 487.11 28.79C488.93 28.77 490.1 27.11 490.1 24.87C490.1 22.24 488.57 20.52 486.8 20.54C484.85 20.56 484.04 22.28 484.04 22.28Z" fill="#EE494F"/>
<path d="M493.18 21.31L494.28 20.5V22.14C494.28 22.14 494.74 20.27 496.46 20.27C498.37 20.27 498.53 21.51 498.53 21.51H497.72C497.72 21.51 497.53 20.64 496.27 20.66C495.03 20.68 494.28 21.9 494.28 23.19V27.52C494.28 28.2 494.63 28.8 494.63 28.8H493.18C493.18 28.8 493.53 28.2 493.53 27.52V22.59C493.53 21.89 493.18 21.31 493.18 21.31Z" fill="#EE494F"/>
<path d="M499.23 26.97C499.23 24.71 504.52 23.49 504.52 23.49C504.52 21.58 504.35 20.42 502.7 20.44C501.35 20.46 501.02 21.5 501.02 21.5H500.21C500.21 21.5 500.46 20.26 502.84 20.26C504.81 20.26 505.28 21.26 505.28 23.41V27.51C505.28 28.19 505.65 28.79 505.65 28.79H504.53V27.86C504.53 27.86 503.22 29.02 501.67 29.02C500.34 29.02 499.23 28.42 499.23 26.97ZM500.14 26.86C500.14 29.68 503.39 28.66 504.53 27.61V23.71C504.53 23.71 500.14 24.63 500.14 26.86Z" fill="#EE494F"/>
<path d="M507.33 24.63C507.33 22.29 509.3 20.26 511.81 20.26C514.09 20.26 514.67 21.5 514.67 21.5H513.8C513.8 21.5 513.32 20.5 511.48 20.5C509.68 20.5 508.23 22.05 508.23 24.46C508.23 27.22 510.01 28.75 511.92 28.75C512.75 28.75 513.91 28.36 514.47 27.71L514.61 27.81C513.93 28.56 512.87 29.03 511.56 29.03C509.19 29.02 507.33 27.4 507.33 24.63Z" fill="#EE494F"/>
<path d="M516.05 24.63C516.05 22.21 517.89 20.26 520.22 20.26C522.58 20.26 524.57 22.21 524.57 24.63C524.57 27.06 522.73 29.02 520.38 29.02C518.04 29.02 516.05 27.07 516.05 24.63ZM516.94 25.06C517.23 27.3 518.87 28.98 520.98 28.75C522.72 28.56 523.97 26.53 523.69 24.29C523.4 22.05 521.76 20.35 519.65 20.54C517.91 20.69 516.65 22.82 516.94 25.06Z" fill="#EE494F"/>
<path d="M537.52 20.5C537.52 20.5 537.29 20.77 536.9 21.78L534.16 28.91H533.95L531.59 22.84L529.25 28.91H529.04L526.28 21.78C525.87 20.76 525.66 20.5 525.66 20.5H526.95C526.95 20.5 526.8 21.04 527.09 21.78L529.45 27.83L531.48 22.54L531.19 21.79C530.8 20.77 530.57 20.51 530.57 20.51H531.88C531.88 20.51 531.73 21.05 532.02 21.79L534.36 27.88L536.7 21.79C536.99 21.06 536.45 20.51 536.45 20.51H537.52V20.5Z" fill="#EE494F"/>
<path d="M539.34 21.31L540.46 20.5V22.01C540.46 22.01 541.1 20.27 543.24 20.27C544.67 20.27 546.12 21.02 546.12 23.28V27.51C546.12 28.19 546.49 28.79 546.49 28.79H545C545 28.79 545.37 28.19 545.37 27.51V23.2C545.37 19.74 540.46 19.99 540.46 23.2V27.51C540.46 28.19 540.83 28.79 540.83 28.79H539.34C539.34 28.79 539.71 28.19 539.71 27.51V22.6C539.71 21.91 539.34 21.31 539.34 21.31Z" fill="#EE494F"/>
<path d="M548.81 21.31L549.93 20.5V27.51C549.93 28.19 550.3 28.79 550.3 28.79H548.81C548.81 28.79 549.18 28.19 549.18 27.51V22.25C549.18 21.58 548.81 21.31 548.81 21.31ZM548.85 17.68C548.85 17.33 549.16 17.02 549.51 17.02C549.86 17.02 550.17 17.33 550.17 17.68C550.17 18.03 549.86 18.34 549.51 18.34C549.16 18.33 548.85 18.03 548.85 17.68Z" fill="#EE494F"/>
<path d="M552.37 24.63C552.37 22.29 554.34 20.26 556.85 20.26C559.13 20.26 559.71 21.5 559.71 21.5H558.84C558.84 21.5 558.36 20.5 556.52 20.5C554.72 20.5 553.27 22.05 553.27 24.46C553.27 27.22 555.05 28.75 556.96 28.75C557.79 28.75 558.95 28.36 559.51 27.71L559.65 27.81C558.97 28.56 557.91 29.03 556.6 29.03C554.22 29.02 552.37 27.4 552.37 24.63Z" fill="#EE494F"/>
<path d="M567.66 20.5C567.66 20.5 567.49 20.75 567.1 21.78L563.54 31.09C562.75 33.18 562.23 33.14 561.51 33.18L561.57 32.5C562.79 32.5 563.17 31.53 564.2 28.81L561.44 21.78C561.03 20.76 560.84 20.5 560.84 20.5H562.13C562.13 20.5 561.98 21.04 562.27 21.78L564.61 27.77L564.73 27.44C565.31 25.93 566.3 23.34 566.89 21.78C567.18 21.05 566.66 20.5 566.66 20.5H567.66Z" fill="#EE494F"/>
<path d="M431.21 50.53C431.21 50.53 431.27 50.03 430.71 49.25L428.08 45.62L428.04 45.64L427.5 46.08V49.25C427.5 49.93 427.85 50.53 427.85 50.53H426.4C426.4 50.53 426.75 49.93 426.75 49.25V39.97C426.75 39.27 426.4 38.68 426.4 38.68L427.5 37.87V45.79L430.4 43.45C431.23 42.79 431.19 42.33 431.12 42.23H432.3C432.3 42.23 431.33 42.96 430.62 43.54L428.67 45.12L432.59 50.51H431.21V50.53Z" fill="#EE494F"/>
<path d="M433.65 48.72C433.65 46.46 438.94 45.24 438.94 45.24C438.94 43.33 438.77 42.17 437.12 42.19C435.77 42.21 435.44 43.25 435.44 43.25H434.63C434.63 43.25 434.88 42.01 437.26 42.01C439.23 42.01 439.69 43.01 439.69 45.16V49.26C439.69 49.94 440.06 50.54 440.06 50.54H438.94V49.61C438.94 49.61 437.63 50.77 436.08 50.77C434.75 50.77 433.65 50.17 433.65 48.72ZM434.56 48.6C434.56 51.42 437.81 50.4 438.95 49.35V45.45C438.94 45.45 434.56 46.38 434.56 48.6Z" fill="#EE494F"/>
<path d="M442.29 43.06L443.41 42.25V43.76C443.41 43.76 444.05 42.02 446.19 42.02C447.62 42.02 449.07 42.77 449.07 45.03V49.26C449.07 49.94 449.44 50.54 449.44 50.54H447.95C447.95 50.54 448.32 49.94 448.32 49.26V44.95C448.32 41.49 443.41 41.74 443.41 44.95V49.26C443.41 49.94 443.78 50.54 443.78 50.54H442.29C442.29 50.54 442.66 49.94 442.66 49.26V44.35C442.66 43.66 442.29 43.06 442.29 43.06Z" fill="#EE494F"/>
<path d="M451.12 46.38C451.12 44.04 453.09 42.01 455.6 42.01C457.88 42.01 458.46 43.25 458.46 43.25H457.59C457.59 43.25 457.11 42.25 455.27 42.25C453.47 42.25 452.02 43.8 452.02 46.21C452.02 48.97 453.8 50.5 455.71 50.5C456.54 50.5 457.7 50.11 458.26 49.46L458.4 49.56C457.72 50.31 456.66 50.78 455.35 50.78C452.98 50.77 451.12 49.14 451.12 46.38Z" fill="#EE494F"/>
<path d="M460.71 45.53C460.69 45.65 460.69 45.74 460.69 45.86C460.69 51.29 465.7 51.19 467.32 49.01L467.46 49.11C467.46 49.11 466.42 50.79 463.9 50.77C461.5 50.75 459.84 48.95 459.84 46.34C459.84 43.92 461.37 42.01 464.03 42.01C465.44 42.01 467.6 42.78 467.6 45.33V45.52H460.71V45.53ZM460.73 45.34H466.8C466.8 43.52 465.64 42.19 463.8 42.19C462.3 42.19 460.94 43.58 460.73 45.34Z" fill="#EE494F"/>
<path d="M469.83 38.69L470.93 37.88V49.2C470.93 49.88 471.28 50.53 471.28 50.53H469.83C469.83 50.53 470.18 49.87 470.18 49.2V39.98C470.18 39.29 469.83 38.69 469.83 38.69Z" fill="#EE494F"/>
<path d="M473.41 48.72C473.41 46.46 478.7 45.24 478.7 45.24C478.7 43.33 478.53 42.17 476.88 42.19C475.53 42.21 475.2 43.25 475.2 43.25H474.39C474.39 43.25 474.64 42.01 477.02 42.01C478.99 42.01 479.45 43.01 479.45 45.16V49.26C479.45 49.94 479.82 50.54 479.82 50.54H478.7V49.61C478.7 49.61 477.39 50.77 475.84 50.77C474.51 50.77 473.41 50.17 473.41 48.72ZM474.32 48.6C474.32 51.42 477.57 50.4 478.71 49.35V45.45C478.7 45.45 474.32 46.38 474.32 48.6Z" fill="#EE494F"/>
<path d="M482.05 43.06L483.15 42.25V43.89C483.15 43.89 483.61 42.02 485.33 42.02C487.24 42.02 487.4 43.26 487.4 43.26H486.59C486.59 43.26 486.4 42.39 485.14 42.41C483.9 42.43 483.15 43.65 483.15 44.94V49.27C483.15 49.95 483.5 50.55 483.5 50.55H482.05C482.05 50.55 482.4 49.95 482.4 49.27V44.34C482.4 43.64 482.05 43.06 482.05 43.06Z" fill="#EE494F"/>
<path d="M489.05 43.06L490.17 42.25V49.26C490.17 49.94 490.54 50.54 490.54 50.54H489.05C489.05 50.54 489.42 49.94 489.42 49.26V44C489.41 43.33 489.05 43.06 489.05 43.06ZM489.09 39.42C489.09 39.07 489.4 38.76 489.75 38.76C490.1 38.76 490.41 39.07 490.41 39.42C490.41 39.77 490.1 40.08 489.75 40.08C489.39 40.08 489.09 39.77 489.09 39.42Z" fill="#EE494F"/>
<path d="M492.62 48.72C492.62 46.46 497.91 45.24 497.91 45.24C497.91 43.33 497.74 42.17 496.09 42.19C494.74 42.21 494.41 43.25 494.41 43.25H493.6C493.6 43.25 493.85 42.01 496.23 42.01C498.2 42.01 498.66 43.01 498.66 45.16V49.26C498.66 49.94 499.03 50.54 499.03 50.54H497.91V49.61C497.91 49.61 496.6 50.77 495.05 50.77C493.72 50.77 492.62 50.17 492.62 48.72ZM493.53 48.6C493.53 51.42 496.78 50.4 497.92 49.35V45.45C497.92 45.45 493.53 46.38 493.53 48.6Z" fill="#EE494F"/>
<path d="M505.52 48.72C505.52 46.46 510.81 45.24 510.81 45.24C510.81 43.33 510.64 42.17 508.99 42.19C507.64 42.21 507.31 43.25 507.31 43.25H506.5C506.5 43.25 506.75 42.01 509.13 42.01C511.1 42.01 511.57 43.01 511.57 45.16V49.26C511.57 49.94 511.94 50.54 511.94 50.54H510.82V49.61C510.82 49.61 509.51 50.77 507.96 50.77C506.62 50.77 505.52 50.17 505.52 48.72ZM506.42 48.6C506.42 51.42 509.67 50.4 510.81 49.35V45.45C510.81 45.45 506.42 46.38 506.42 48.6Z" fill="#EE494F"/>
<path d="M513.62 46.55C513.62 44.15 515.46 42.01 517.99 42.01C519.61 42.01 520.6 42.8 520.6 42.8V39.98C520.6 39.28 520.25 38.69 520.25 38.69L521.35 37.88V49.26C521.35 49.94 521.7 50.54 521.7 50.54H520.6V49.19C520.6 49.19 519.83 50.77 517.51 50.77C515.24 50.77 513.62 49.09 513.62 46.55ZM514.52 46.22C514.52 48.58 515.78 50.51 517.9 50.49C519.77 50.47 520.59 48.77 520.59 48.77V44.65C520.59 43.22 519.22 42.22 517.58 42.23C515.97 42.26 514.52 43.87 514.52 46.22Z" fill="#EE494F"/>
<path d="M535.38 42.24C535.38 42.24 535.15 42.51 534.76 43.52L532.02 50.65H531.81L529.45 44.58L527.11 50.65H526.9L524.14 43.52C523.73 42.5 523.52 42.24 523.52 42.24H524.81C524.81 42.24 524.66 42.78 524.95 43.52L527.31 49.57L529.34 44.28L529.05 43.53C528.66 42.51 528.43 42.25 528.43 42.25H529.74C529.74 42.25 529.59 42.79 529.88 43.53L532.22 49.62L534.56 43.53C534.85 42.8 534.31 42.25 534.31 42.25H535.38V42.24Z" fill="#EE494F"/>
<path d="M536.37 46.38C536.37 43.96 538.21 42.01 540.54 42.01C542.9 42.01 544.89 43.96 544.89 46.38C544.89 48.81 543.05 50.77 540.7 50.77C538.36 50.77 536.37 48.81 536.37 46.38ZM537.25 46.8C537.54 49.04 539.18 50.72 541.29 50.49C543.03 50.3 544.28 48.27 544 46.03C543.71 43.79 542.07 42.09 539.96 42.28C538.22 42.44 536.97 44.56 537.25 46.8Z" fill="#EE494F"/>
<path d="M551.87 50.53C551.87 50.53 551.93 50.03 551.37 49.25L548.74 45.62L548.7 45.64L548.16 46.08V49.25C548.16 49.93 548.51 50.53 548.51 50.53H547.06C547.06 50.53 547.41 49.93 547.41 49.25V39.97C547.41 39.27 547.06 38.68 547.06 38.68L548.16 37.87V45.79L551.06 43.45C551.89 42.79 551.85 42.33 551.77 42.23H552.95C552.95 42.23 551.98 42.96 551.27 43.54L549.32 45.12L553.24 50.51H551.87V50.53Z" fill="#EE494F"/>
<path d="M554.3 48.72C554.3 46.46 559.59 45.24 559.59 45.24C559.59 43.33 559.42 42.17 557.77 42.19C556.42 42.21 556.09 43.25 556.09 43.25H555.28C555.28 43.25 555.53 42.01 557.91 42.01C559.88 42.01 560.35 43.01 560.35 45.16V49.26C560.35 49.94 560.72 50.54 560.72 50.54H559.6V49.61C559.6 49.61 558.29 50.77 556.74 50.77C555.41 50.77 554.3 50.17 554.3 48.72ZM555.21 48.6C555.21 51.42 558.46 50.4 559.6 49.35V45.45C559.6 45.45 555.21 46.38 555.21 48.6Z" fill="#EE494F"/>
<path d="M562.4 46.38C562.4 44.04 564.37 42.01 566.88 42.01C569.16 42.01 569.74 43.25 569.74 43.25H568.87C568.87 43.25 568.39 42.25 566.55 42.25C564.75 42.25 563.3 43.8 563.3 46.21C563.3 48.97 565.08 50.5 566.99 50.5C567.82 50.5 568.98 50.11 569.54 49.46L569.68 49.56C569 50.31 567.94 50.78 566.63 50.78C564.26 50.77 562.4 49.14 562.4 46.38Z" fill="#EE494F"/>
<path d="M576.57 50.53C576.57 50.53 576.63 50.03 576.07 49.25L573.44 45.62L573.4 45.64L572.86 46.08V49.25C572.86 49.93 573.21 50.53 573.21 50.53H571.76C571.76 50.53 572.11 49.93 572.11 49.25V39.97C572.11 39.27 571.76 38.68 571.76 38.68L572.86 37.87V45.79L575.76 43.45C576.59 42.79 576.55 42.33 576.47 42.23H577.65C577.65 42.23 576.68 42.96 575.97 43.54L574.02 45.12L577.94 50.51H576.57V50.53Z" fill="#EE494F"/>
<path d="M579.01 48.72C579.01 46.46 584.3 45.24 584.3 45.24C584.3 43.33 584.13 42.17 582.48 42.19C581.13 42.21 580.8 43.25 580.8 43.25H579.99C579.99 43.25 580.24 42.01 582.62 42.01C584.59 42.01 585.06 43.01 585.06 45.16V49.26C585.06 49.94 585.43 50.54 585.43 50.54H584.31V49.61C584.31 49.61 583 50.77 581.45 50.77C580.11 50.77 579.01 50.17 579.01 48.72ZM579.91 48.6C579.91 51.42 583.16 50.4 584.3 49.35V45.45C584.3 45.45 579.91 46.38 579.91 48.6Z" fill="#EE494F"/>
<path d="M441.66 209.06C441.66 209.86 442.3 210.62 442.3 210.62H439.7C439.7 210.62 440.34 209.86 440.34 209.06V198.46L434.23 210.75H433.9L427.56 198.01V209.06C427.56 209.86 428.14 210.62 428.14 210.62H426.67C426.67 210.62 427.25 209.86 427.25 209.06V197.88C427.25 197.08 426.67 196.32 426.67 196.32H428.16L434.63 209.3L440.34 197.78V196.31H442.3C442.3 196.31 441.66 197.07 441.66 197.87V209.06Z" fill="#0E2B39"/>
<path d="M446.62 209.08C446.62 209.86 447.24 210.61 447.24 210.61H444.68C444.68 210.61 445.3 209.85 445.3 209.08V203.61L444.21 204.23L444.08 203.96L445.3 203.27V198.53C445.3 197.73 444.68 196.97 444.68 196.97L446.61 196.04V202.51L447.7 201.89L447.83 202.13L446.61 202.84V209.08H446.62Z" fill="#0E2B39"/>
<path d="M457.33 201.08C457.33 201.08 456.91 201.44 456.44 202.61L452.37 213.26C451.48 215.66 450.86 215.62 450.04 215.66V214.44C451.26 214.44 451.86 213.66 453.13 210.46L449.97 202.61C449.5 201.43 449.04 201.08 449.04 201.08H451.42C451.42 201.08 451.04 201.77 451.38 202.61L453.78 208.77C454.45 207.01 455.49 204.32 456.14 202.61C456.47 201.77 455.67 201.08 455.67 201.08H457.33Z" fill="#0E2B39"/>
<path d="M458.53 202.01L460.49 201.08V202.81C461 201.72 462.31 200.81 463.69 200.81C465.34 200.81 467 201.68 467 204.28V209.08C467 209.86 467.65 210.61 467.65 210.61H465.05C465.05 210.61 465.69 209.85 465.69 209.08V204.26C465.69 200.5 460.49 200.57 460.49 204.26V209.08C460.49 209.86 461.13 210.61 461.13 210.61H458.53C458.53 210.61 459.17 209.85 459.17 209.08V203.54C459.18 202.74 458.53 202.01 458.53 202.01Z" fill="#0E2B39"/>
<path d="M469.09 208.52C469.09 205.47 475.14 204.52 475.14 204.52C475.14 202.32 474.94 201.03 473.09 201.07C471.76 201.09 471.38 202.29 471.38 202.29H470C470 202.29 470.49 200.8 473.38 200.8C475.76 200.8 476.45 201.73 476.45 204.2V209.07C476.45 209.85 477.09 210.6 477.09 210.6H475.13V209.51C475.13 209.51 473.66 210.87 471.93 210.87C470.41 210.88 469.09 210.19 469.09 208.52ZM470.58 208.5C470.58 211.83 474.23 210.15 475.14 209.17V204.84C475.14 204.83 470.58 205.97 470.58 208.5Z" fill="#0E2B39"/>
<path d="M478.7 202.01L480.63 201.08V202.97C480.63 202.97 481.03 200.81 483.14 200.81C485.34 200.81 485.52 202.3 485.52 202.3H484.14C484.14 202.3 483.83 201.37 482.85 201.39C481.45 201.41 480.63 202.9 480.63 204.39V209.08C480.63 209.86 481.25 210.61 481.25 210.61H478.69C478.69 210.61 479.31 209.85 479.31 209.08V203.54C479.32 202.74 478.7 202.01 478.7 202.01Z" fill="#0E2B39"/>
<path d="M492.93 208.52C492.93 206.41 486.51 206.34 486.51 203.5C486.51 201.61 488.4 200.81 489.93 200.81C492.58 200.81 493.51 202.12 493.51 202.12L492.69 203.19C492.69 203.19 492.6 201.01 489.71 201.08C488.6 201.1 487.44 201.7 487.44 202.95C487.44 205.24 494.06 204.93 494.06 207.82C494.06 210.27 491.55 210.89 490.04 210.89C487.26 210.89 486.42 209.47 486.42 209.47L487.29 208.38C487.29 208.38 487.69 210.71 490.27 210.63C491.68 210.57 492.93 209.99 492.93 208.52Z" fill="#0E2B39"/>
<path d="M501.53 210.61C501.53 210.61 501.78 209.97 501.13 209.08L498.31 205.19L497.55 205.81V209.08C497.55 209.86 498.17 210.61 498.17 210.61H495.61C495.61 210.61 496.23 209.85 496.23 209.08V198.54C496.23 197.74 495.61 196.98 495.61 196.98L497.54 196.05V205.41L501.01 202.61C501.94 201.83 501.5 201.19 501.41 201.08H503.59C503.59 201.08 502.32 201.92 501.5 202.59L499.3 204.37L503.84 210.62H501.53V210.61Z" fill="#0E2B39"/>
<path d="M504.87 208.52C504.87 205.47 510.92 204.52 510.92 204.52C510.92 202.32 510.72 201.03 508.87 201.07C507.54 201.09 507.16 202.29 507.16 202.29H505.78C505.78 202.29 506.27 200.8 509.16 200.8C511.54 200.8 512.23 201.73 512.23 204.2V209.07C512.23 209.85 512.87 210.6 512.87 210.6H510.91V209.51C510.91 209.51 509.44 210.87 507.71 210.87C506.18 210.88 504.87 210.19 504.87 208.52ZM506.36 208.5C506.36 211.83 510.01 210.15 510.92 209.17V204.84C510.92 204.83 506.36 205.97 506.36 208.5Z" fill="#0E2B39"/>
<path d="M520.23 202.01L522.19 201.08V209.08C522.19 209.86 522.83 210.61 522.83 210.61H520.23C520.23 210.61 520.87 209.85 520.87 209.08V203.17C520.88 202.39 520.23 202.01 520.23 202.01ZM520.52 197.7C520.52 197.19 520.94 196.77 521.45 196.77C521.96 196.77 522.38 197.19 522.38 197.7C522.38 198.21 521.96 198.63 521.45 198.63C520.94 198.63 520.52 198.21 520.52 197.7Z" fill="#0E2B39"/>
<path d="M543.89 201.08C543.89 201.08 543.47 201.44 543 202.59L539.87 210.75H539.56L536.89 203.86L534.22 210.75H533.91L530.75 202.61C530.28 201.43 529.79 201.08 529.79 201.08H532.17C532.17 201.08 531.79 201.77 532.13 202.61L534.6 208.95L536.71 203.44L536.4 202.62C535.96 201.44 535.44 201.09 535.44 201.09H537.84C537.84 201.09 537.46 201.78 537.8 202.62L540.25 208.98L542.7 202.62C543.03 201.78 542.21 201.09 542.21 201.09H543.89V201.08Z" fill="#0E2B39"/>
<path d="M551.38 208.52C551.38 206.41 544.96 206.34 544.96 203.5C544.96 201.61 546.85 200.81 548.38 200.81C551.03 200.81 551.96 202.12 551.96 202.12L551.14 203.19C551.14 203.19 551.05 201.01 548.16 201.08C547.05 201.1 545.89 201.7 545.89 202.95C545.89 205.24 552.51 204.93 552.51 207.82C552.51 210.27 550 210.89 548.49 210.89C545.71 210.89 544.87 209.47 544.87 209.47L545.74 208.38C545.74 208.38 546.14 210.71 548.72 210.63C550.13 210.57 551.38 209.99 551.38 208.52Z" fill="#0E2B39"/>
<path d="M554.07 202.01L556.03 201.08V202.64C556.03 202.64 557.1 200.82 559.61 200.82C562.34 200.82 564.28 203.07 564.28 205.84C564.28 208.64 562.37 210.89 559.21 210.89C557.23 210.89 556.03 209.53 556.03 209.53V214.11C556.03 214.91 556.67 215.67 556.67 215.67H554.07C554.07 215.67 554.71 214.91 554.71 214.11V203.55C554.71 202.74 554.07 202.01 554.07 202.01ZM556.03 203.28V207.08C556.03 209.41 557.7 210.57 559.63 210.55C561.67 210.53 562.96 208.46 562.79 205.88C562.59 203.3 561.3 201.14 559.21 201.19C556.96 201.23 556.03 203.28 556.03 203.28Z" fill="#0E2B39"/>
<path d="M565.79 205.83C565.79 203.05 567.99 200.81 570.68 200.81C573.39 200.81 575.59 203.06 575.59 205.83C575.59 208.63 573.39 210.88 570.68 210.88C567.99 210.88 565.79 208.63 565.79 205.83ZM567.25 205.88C567.58 208.46 569.3 210.5 571.3 210.5C573.3 210.5 574.46 208.46 574.12 205.88C573.79 203.3 572.05 201.19 570.07 201.19C568.08 201.19 566.92 203.3 567.25 205.88ZM569.66 199.52L572.46 196.96L573.42 197.94L569.84 199.65L569.66 199.52Z" fill="#0E2B39"/>
<path d="M579.68 209.08C579.68 209.86 580.3 210.61 580.3 210.61H577.74C577.74 210.61 578.36 209.85 578.36 209.08V203.61L577.27 204.23L577.14 203.96L578.36 203.27V198.53C578.36 197.73 577.74 196.97 577.74 196.97L579.67 196.04V202.51L580.76 201.89L580.89 202.13L579.67 202.84V209.08H579.68Z" fill="#0E2B39"/>
<path d="M582.68 202.01L584.64 201.08V202.64C584.64 202.64 585.71 200.82 588.22 200.82C590.95 200.82 592.89 203.07 592.89 205.84C592.89 208.64 590.98 210.89 587.82 210.89C585.84 210.89 584.64 209.53 584.64 209.53V214.11C584.64 214.91 585.28 215.67 585.28 215.67H582.68C582.68 215.67 583.32 214.91 583.32 214.11V203.55C583.33 202.74 582.68 202.01 582.68 202.01ZM584.64 203.28V207.08C584.64 209.41 586.31 210.57 588.24 210.55C590.28 210.53 591.57 208.46 591.4 205.88C591.2 203.3 589.91 201.14 587.82 201.19C585.57 201.23 584.64 203.28 584.64 203.28Z" fill="#0E2B39"/>
<path d="M594.45 202.01L596.38 201.08V202.97C596.38 202.97 596.78 200.81 598.89 200.81C601.09 200.81 601.27 202.3 601.27 202.3H599.89C599.89 202.3 599.58 201.37 598.6 201.39C597.2 201.41 596.38 202.9 596.38 204.39V209.08C596.38 209.86 597 210.61 597 210.61H594.44C594.44 210.61 595.06 209.85 595.06 209.08V203.54C595.07 202.74 594.45 202.01 594.45 202.01Z" fill="#0E2B39"/>
<path d="M601.92 208.52C601.92 205.47 607.97 204.52 607.97 204.52C607.97 202.32 607.77 201.03 605.92 201.07C604.59 201.09 604.21 202.29 604.21 202.29H602.83C602.83 202.29 603.32 200.8 606.21 200.8C608.59 200.8 609.28 201.73 609.28 204.2V209.07C609.28 209.85 609.92 210.6 609.92 210.6H607.96V209.51C607.96 209.51 606.49 210.87 604.76 210.87C603.23 210.88 601.92 210.19 601.92 208.52ZM603.41 208.5C603.41 211.83 607.06 210.15 607.97 209.17V204.84C607.96 204.83 603.41 205.97 603.41 208.5Z" fill="#0E2B39"/>
<path d="M611.3 205.83C611.3 203.05 613.61 200.81 616.44 200.81C619.06 200.81 619.95 202.3 619.95 202.3H618.5C618.5 202.3 617.94 201.14 616.05 201.14C613.98 201.14 612.51 203.52 612.78 206.05C613.03 208.47 614.63 210.5 616.83 210.5C617.79 210.5 618.96 210.03 619.54 209.34L619.74 209.47C618.96 210.34 617.67 210.87 616.16 210.87C613.43 210.88 611.3 209.01 611.3 205.83Z" fill="#0E2B39"/>
<path d="M621.06 205.83C621.06 203.05 623.26 200.81 625.95 200.81C628.66 200.81 630.86 203.06 630.86 205.83C630.86 208.63 628.66 210.88 625.95 210.88C623.26 210.88 621.06 208.63 621.06 205.83ZM622.53 205.88C622.86 208.46 624.57 210.5 626.58 210.5C628.59 210.5 629.74 208.46 629.4 205.88C629.07 203.3 627.33 201.19 625.35 201.19C623.35 201.19 622.19 203.3 622.53 205.88Z" fill="#0E2B39"/>
<path d="M645.72 201.08C645.72 201.08 645.3 201.44 644.83 202.59L641.7 210.75H641.39L638.72 203.86L636.05 210.75H635.74L632.58 202.61C632.11 201.43 631.62 201.08 631.62 201.08H634C634 201.08 633.62 201.77 633.96 202.61L636.43 208.95L638.54 203.44L638.23 202.62C637.79 201.44 637.27 201.09 637.27 201.09H639.67C639.67 201.09 639.29 201.78 639.63 202.62L642.08 208.98L644.53 202.62C644.86 201.78 644.04 201.09 644.04 201.09H645.72V201.08Z" fill="#0E2B39"/>
<path d="M646.92 202.01L648.88 201.08V202.81C649.39 201.72 650.7 200.81 652.08 200.81C653.73 200.81 655.39 201.68 655.39 204.28V209.08C655.39 209.86 656.04 210.61 656.04 210.61H653.44C653.44 210.61 654.08 209.85 654.08 209.08V204.26C654.08 200.5 648.88 200.57 648.88 204.26V209.08C648.88 209.86 649.52 210.61 649.52 210.61H646.92C646.92 210.61 647.56 209.85 647.56 209.08V203.54C647.56 202.74 646.92 202.01 646.92 202.01Z" fill="#0E2B39"/>
<path d="M657.83 202.01L659.79 201.08V209.08C659.79 209.86 660.43 210.61 660.43 210.61H657.83C657.83 210.61 658.47 209.85 658.47 209.08V203.17C658.48 202.39 657.83 202.01 657.83 202.01ZM658.12 197.7C658.12 197.19 658.54 196.77 659.05 196.77C659.56 196.77 659.98 197.19 659.98 197.7C659.98 198.21 659.56 198.63 659.05 198.63C658.54 198.63 658.12 198.21 658.12 197.7Z" fill="#0E2B39"/>
<path d="M662.12 205.83C662.12 203.05 664.43 200.81 667.26 200.81C669.88 200.81 670.77 202.3 670.77 202.3H669.32C669.32 202.3 668.76 201.14 666.87 201.14C664.8 201.14 663.33 203.52 663.6 206.05C663.85 208.47 665.45 210.5 667.65 210.5C668.61 210.5 669.78 210.03 670.36 209.34L670.56 209.47C669.78 210.34 668.49 210.87 666.98 210.87C664.26 210.88 662.12 209.01 662.12 205.83Z" fill="#0E2B39"/>
<path d="M679.93 201.08C679.93 201.08 679.51 201.44 679.04 202.61L674.97 213.26C674.08 215.66 673.46 215.62 672.64 215.66V214.44C673.86 214.44 674.46 213.66 675.73 210.46L672.57 202.61C672.1 201.43 671.64 201.08 671.64 201.08H674.02C674.02 201.08 673.64 201.77 673.98 202.61L676.38 208.77C677.05 207.01 678.09 204.32 678.74 202.61C679.07 201.77 678.27 201.08 678.27 201.08H679.93Z" fill="#0E2B39"/>
<path d="M432.59 237.29C432.59 237.29 432.84 236.65 432.19 235.76L429.37 231.87L428.61 232.49V235.76C428.61 236.54 429.23 237.29 429.23 237.29H426.67C426.67 237.29 427.29 236.53 427.29 235.76V225.22C427.29 224.42 426.67 223.66 426.67 223.66L428.6 222.73V232.09L432.07 229.29C433 228.51 432.56 227.87 432.47 227.76H434.65C434.65 227.76 433.38 228.6 432.56 229.27L430.36 231.05L434.9 237.3H432.59V237.29Z" fill="#0E2B39"/>
<path d="M435.92 235.2C435.92 232.15 441.97 231.2 441.97 231.2C441.97 229 441.77 227.71 439.92 227.75C438.59 227.77 438.21 228.97 438.21 228.97H436.83C436.83 228.97 437.32 227.48 440.21 227.48C442.59 227.48 443.28 228.41 443.28 230.88V235.75C443.28 236.53 443.92 237.28 443.92 237.28H441.96V236.19C441.96 236.19 440.49 237.55 438.76 237.55C437.23 237.56 435.92 236.87 435.92 235.2ZM437.41 235.18C437.41 238.51 441.06 236.83 441.97 235.85V231.52C441.97 231.51 437.41 232.65 437.41 235.18Z" fill="#0E2B39"/>
<path d="M445.53 228.69L447.49 227.76V229.49C448 228.4 449.31 227.49 450.69 227.49C452.34 227.49 454 228.36 454 230.96V235.76C454 236.54 454.65 237.29 454.65 237.29H452.05C452.05 237.29 452.69 236.53 452.69 235.76V230.94C452.69 227.18 447.49 227.25 447.49 230.94V235.76C447.49 236.54 448.13 237.29 448.13 237.29H445.53C445.53 237.29 446.17 236.53 446.17 235.76V230.22C446.17 229.42 445.53 228.69 445.53 228.69Z" fill="#0E2B39"/>
<path d="M456.02 232.51C456.02 229.73 458.33 227.49 461.16 227.49C463.78 227.49 464.67 228.98 464.67 228.98H463.22C463.22 228.98 462.66 227.82 460.77 227.82C458.7 227.82 457.23 230.2 457.5 232.73C457.75 235.15 459.35 237.18 461.55 237.18C462.51 237.18 463.68 236.71 464.26 236.02L464.46 236.15C463.68 237.02 462.39 237.55 460.88 237.55C458.15 237.56 456.02 235.69 456.02 232.51Z" fill="#0E2B39"/>
<path d="M467.29 231.6C467.27 231.73 467.27 231.84 467.27 231.98C467.27 238.23 472.52 237.96 474.38 235.47L474.58 235.6C474.58 235.6 473.45 237.56 470.45 237.56C467.69 237.56 465.78 235.47 465.78 232.47C465.78 229.69 467.67 227.49 470.74 227.49C472.14 227.49 474.94 228.38 474.94 231.31V231.6H467.29ZM467.32 231.31H473.57C473.57 229.22 472.32 227.75 470.44 227.75C468.89 227.76 467.56 229.31 467.32 231.31Z" fill="#0E2B39"/>
<path d="M476.56 223.67L478.49 222.74V235.77C478.49 236.55 479.11 237.3 479.11 237.3H476.55C476.55 237.3 477.17 236.54 477.17 235.77V225.23C477.19 224.42 476.56 223.67 476.56 223.67Z" fill="#0E2B39"/>
<path d="M480.74 235.2C480.74 232.15 486.79 231.2 486.79 231.2C486.79 229 486.59 227.71 484.74 227.75C483.41 227.77 483.03 228.97 483.03 228.97H481.65C481.65 228.97 482.14 227.48 485.03 227.48C487.41 227.48 488.1 228.41 488.1 230.88V235.75C488.1 236.53 488.74 237.28 488.74 237.28H486.78V236.19C486.78 236.19 485.31 237.55 483.58 237.55C482.05 237.56 480.74 236.87 480.74 235.2ZM482.23 235.18C482.23 238.51 485.88 236.83 486.79 235.85V231.52C486.79 231.51 482.23 232.65 482.23 235.18Z" fill="#0E2B39"/>
<path d="M490.35 228.69L492.28 227.76V229.65C492.28 229.65 492.68 227.49 494.79 227.49C496.99 227.49 497.17 228.98 497.17 228.98H495.79C495.79 228.98 495.48 228.05 494.5 228.07C493.1 228.09 492.28 229.58 492.28 231.07V235.76C492.28 236.54 492.9 237.29 492.9 237.29H490.34C490.34 237.29 490.96 236.53 490.96 235.76V230.22C490.97 229.42 490.35 228.69 490.35 228.69Z" fill="#0E2B39"/>
<path d="M498.49 228.69L500.45 227.76V235.76C500.45 236.54 501.09 237.29 501.09 237.29H498.49C498.49 237.29 499.13 236.53 499.13 235.76V229.85C499.13 229.07 498.49 228.69 498.49 228.69ZM498.77 224.38C498.77 223.87 499.19 223.45 499.7 223.45C500.21 223.45 500.63 223.87 500.63 224.38C500.63 224.89 500.21 225.31 499.7 225.31C499.2 225.31 498.77 224.89 498.77 224.38Z" fill="#0E2B39"/>
<path d="M502.73 235.2C502.73 232.15 508.78 231.2 508.78 231.2C508.78 229 508.58 227.71 506.73 227.75C505.4 227.77 505.02 228.97 505.02 228.97H503.64C503.64 228.97 504.13 227.48 507.02 227.48C509.4 227.48 510.09 228.41 510.09 230.88V235.75C510.09 236.53 510.73 237.28 510.73 237.28H508.77V236.19C508.77 236.19 507.3 237.55 505.57 237.55C504.04 237.56 502.73 236.87 502.73 235.2ZM504.22 235.18C504.22 238.51 507.87 236.83 508.78 235.85V231.52C508.78 231.51 504.22 232.65 504.22 235.18Z" fill="#0E2B39"/>
<path d="M517.74 235.2C517.74 232.15 523.79 231.2 523.79 231.2C523.79 229 523.59 227.71 521.74 227.75C520.41 227.77 520.03 228.97 520.03 228.97H518.65C518.65 228.97 519.14 227.48 522.03 227.48C524.41 227.48 525.1 228.41 525.1 230.88V235.75C525.1 236.53 525.74 237.28 525.74 237.28H523.78V236.19C523.78 236.19 522.31 237.55 520.58 237.55C519.05 237.56 517.74 236.87 517.74 235.2ZM519.23 235.18C519.23 238.51 522.88 236.83 523.79 235.85V231.52C523.79 231.51 519.23 232.65 519.23 235.18Z" fill="#0E2B39"/>
<path d="M527.12 232.71C527.12 229.95 529.05 227.49 532.32 227.49C534.17 227.49 535.37 228.56 535.37 228.56V225.23C535.37 224.43 534.75 223.67 534.75 223.67L536.68 222.74V235.77C536.68 236.55 537.3 237.3 537.3 237.3H535.37V235.74C535.37 235.74 534.48 237.56 531.81 237.56C529.21 237.56 527.12 235.63 527.12 232.71ZM528.61 232.31C528.61 234.58 530.23 237.18 532.46 237.18C534.62 237.18 535.37 235.2 535.37 235.2V231.27C535.37 228.96 533.75 227.78 531.79 227.82C529.95 227.87 528.61 229.6 528.61 232.31Z" fill="#0E2B39"/>
<path d="M552.6 227.76C552.6 227.76 552.18 228.12 551.71 229.27L548.58 237.43H548.27L545.6 230.54L542.93 237.43H542.62L539.46 229.29C538.99 228.11 538.5 227.76 538.5 227.76H540.88C540.88 227.76 540.5 228.45 540.84 229.29L543.31 235.63L545.42 230.12L545.11 229.3C544.67 228.12 544.15 227.77 544.15 227.77H546.55C546.55 227.77 546.17 228.46 546.51 229.3L548.96 235.66L551.41 229.3C551.74 228.46 550.92 227.77 550.92 227.77H552.6V227.76Z" fill="#0E2B39"/>
<path d="M553.25 232.51C553.25 229.73 555.45 227.49 558.14 227.49C560.85 227.49 563.05 229.74 563.05 232.51C563.05 235.31 560.85 237.56 558.14 237.56C555.45 237.56 553.25 235.32 553.25 232.51ZM554.71 232.56C555.04 235.14 556.75 237.18 558.76 237.18C560.77 237.18 561.92 235.14 561.58 232.56C561.25 229.98 559.51 227.87 557.53 227.87C555.54 227.87 554.38 229.98 554.71 232.56Z" fill="#0E2B39"/>
<path d="M570.52 237.29C570.52 237.29 570.77 236.65 570.12 235.76L567.3 231.87L566.54 232.49V235.76C566.54 236.54 567.16 237.29 567.16 237.29H564.6C564.6 237.29 565.22 236.53 565.22 235.76V225.22C565.22 224.42 564.6 223.66 564.6 223.66L566.53 222.73V232.09L570 229.29C570.93 228.51 570.49 227.87 570.4 227.76H572.58C572.58 227.76 571.31 228.6 570.49 229.27L568.29 231.05L572.83 237.3H570.52V237.29Z" fill="#0E2B39"/>
<path d="M573.86 235.2C573.86 232.15 579.91 231.2 579.91 231.2C579.91 229 579.71 227.71 577.86 227.75C576.53 227.77 576.15 228.97 576.15 228.97H574.77C574.77 228.97 575.26 227.48 578.15 227.48C580.53 227.48 581.22 228.41 581.22 230.88V235.75C581.22 236.53 581.86 237.28 581.86 237.28H579.9V236.19C579.9 236.19 578.43 237.55 576.7 237.55C575.17 237.56 573.86 236.87 573.86 235.2ZM575.35 235.18C575.35 238.51 579 236.83 579.91 235.85V231.52C579.91 231.51 575.35 232.65 575.35 235.18Z" fill="#0E2B39"/>
<path d="M583.24 232.51C583.24 229.73 585.55 227.49 588.38 227.49C591 227.49 591.89 228.98 591.89 228.98H590.44C590.44 228.98 589.88 227.82 587.99 227.82C585.92 227.82 584.45 230.2 584.72 232.73C584.97 235.15 586.57 237.18 588.77 237.18C589.73 237.18 590.9 236.71 591.48 236.02L591.68 236.15C590.9 237.02 589.61 237.55 588.1 237.55C585.37 237.56 583.24 235.69 583.24 232.51Z" fill="#0E2B39"/>
<path d="M599.25 237.29C599.25 237.29 599.5 236.65 598.85 235.76L596.03 231.87L595.27 232.49V235.76C595.27 236.54 595.89 237.29 595.89 237.29H593.33C593.33 237.29 593.95 236.53 593.95 235.76V225.22C593.95 224.42 593.33 223.66 593.33 223.66L595.26 222.73V232.09L598.73 229.29C599.66 228.51 599.22 227.87 599.13 227.76H601.31C601.31 227.76 600.04 228.6 599.22 229.27L597.02 231.05L601.56 237.3H599.25V237.29Z" fill="#0E2B39"/>
<path d="M602.58 235.2C602.58 232.15 608.63 231.2 608.63 231.2C608.63 229 608.43 227.71 606.58 227.75C605.25 227.77 604.87 228.97 604.87 228.97H603.49C603.49 228.97 603.98 227.48 606.87 227.48C609.25 227.48 609.94 228.41 609.94 230.88V235.75C609.94 236.53 610.58 237.28 610.58 237.28H608.62V236.19C608.62 236.19 607.15 237.55 605.42 237.55C603.89 237.56 602.58 236.87 602.58 235.2ZM604.07 235.18C604.07 238.51 607.72 236.83 608.63 235.85V231.52C608.63 231.51 604.07 232.65 604.07 235.18Z" fill="#0E2B39"/>
<path d="M435.57 263.97H433.61V262.21C433.1 263.32 431.79 264.23 430.41 264.23C428.77 264.23 427.1 263.36 427.1 260.76V256.51C427.1 255.73 426.46 255.35 426.46 255.35L428.42 254.42V260.78C428.42 264.31 433.62 264.45 433.62 260.78V256.51C433.62 255.73 432.97 255.35 432.97 255.35L434.93 254.42V262.42C434.92 263.22 435.57 263.97 435.57 263.97Z" fill="#0E2B39"/>
<path d="M437.17 250.35L439.1 249.42V262.45C439.1 263.23 439.72 263.98 439.72 263.98H437.16C437.16 263.98 437.78 263.22 437.78 262.45V251.9C437.79 251.1 437.17 250.35 437.17 250.35Z" fill="#0E2B39"/>
<path d="M441.72 263.24C441.72 262.73 442.14 262.31 442.65 262.31C443.16 262.31 443.58 262.73 443.58 263.24C443.58 263.75 443.16 264.17 442.65 264.17C442.15 264.17 441.72 263.75 441.72 263.24Z" fill="#0E2B39"/>
<path d="M460.49 260.53C460.49 256.91 452.06 257.26 451.49 253.84C451.02 251.02 453.74 249.42 456.16 249.42C460.09 249.42 461.43 251.51 461.43 251.51L460.45 252.78C460.45 252.78 459.92 249.62 455.83 249.69C454.5 249.71 452.52 250.65 452.52 252.54C452.52 256.5 461.95 255.79 461.95 260.05C461.93 263.45 458.26 264.25 456.26 264.25C452.44 264.25 450.95 261.89 450.95 261.89L451.95 260.64C451.95 260.64 452.84 264.02 456.57 263.95C458.62 263.91 460.49 262.69 460.49 260.53Z" fill="#0E2B39"/>
<path d="M463.69 255.37L465.65 254.44V262.44C465.65 263.22 466.29 263.97 466.29 263.97H463.69C463.69 263.97 464.33 263.21 464.33 262.44V256.53C464.34 255.75 463.69 255.37 463.69 255.37ZM463.98 251.06C463.98 250.55 464.4 250.13 464.91 250.13C465.42 250.13 465.84 250.55 465.84 251.06C465.84 251.57 465.42 251.99 464.91 251.99C464.4 251.99 463.98 251.57 463.98 251.06Z" fill="#0E2B39"/>
<path d="M469.49 258.28C469.47 258.41 469.47 258.52 469.47 258.66C469.47 264.91 474.72 264.64 476.58 262.15L476.78 262.28C476.78 262.28 475.65 264.24 472.65 264.24C469.89 264.24 467.98 262.15 467.98 259.15C467.98 256.37 469.87 254.17 472.94 254.17C474.34 254.17 477.14 255.06 477.14 257.99V258.28H469.49ZM469.52 257.99H475.77C475.77 255.9 474.52 254.43 472.64 254.43C471.09 254.44 469.76 255.99 469.52 257.99Z" fill="#0E2B39"/>
<path d="M492.33 262.44V257.62C492.33 253.86 487.15 254 487.15 257.73V262.44C487.15 263.22 487.79 263.97 487.79 263.97H485.19C485.19 263.97 485.83 263.21 485.83 262.44V257.62C485.83 253.86 480.65 253.93 480.65 257.62V262.44C480.65 263.22 481.29 263.97 481.29 263.97H478.69C478.69 263.97 479.33 263.21 479.33 262.44V256.9C479.33 256.1 478.69 255.37 478.69 255.37L480.65 254.44V256.17C481.16 255.08 482.45 254.17 483.81 254.17C485.21 254.17 486.59 254.77 487.01 256.48C487.43 255.1 488.99 254.17 490.3 254.17C491.97 254.17 493.63 255.04 493.63 257.64V262.44C493.63 263.22 494.27 263.97 494.27 263.97H491.67C491.68 263.97 492.33 263.22 492.33 262.44Z" fill="#0E2B39"/>
<path d="M495.66 259.19C495.66 256.41 497.86 254.17 500.55 254.17C503.26 254.17 505.46 256.42 505.46 259.19C505.46 261.99 503.26 264.24 500.55 264.24C497.86 264.24 495.66 262 495.66 259.19ZM497.13 259.24C497.46 261.82 499.17 263.86 501.18 263.86C503.19 263.86 504.34 261.82 504 259.24C503.67 256.66 501.93 254.55 499.95 254.55C497.95 254.55 496.8 256.66 497.13 259.24Z" fill="#0E2B39"/>
<path d="M520.65 262.44V257.62C520.65 253.86 515.47 254 515.47 257.73V262.44C515.47 263.22 516.11 263.97 516.11 263.97H513.51C513.51 263.97 514.15 263.21 514.15 262.44V257.62C514.15 253.86 508.97 253.93 508.97 257.62V262.44C508.97 263.22 509.61 263.97 509.61 263.97H507.01C507.01 263.97 507.65 263.21 507.65 262.44V256.9C507.65 256.1 507.01 255.37 507.01 255.37L508.97 254.44V256.17C509.48 255.08 510.77 254.17 512.13 254.17C513.53 254.17 514.91 254.77 515.33 256.48C515.75 255.1 517.31 254.17 518.62 254.17C520.29 254.17 521.95 255.04 521.95 257.64V262.44C521.95 263.22 522.59 263.97 522.59 263.97H519.99C520.01 263.97 520.65 263.22 520.65 262.44Z" fill="#0E2B39"/>
<path d="M531.73 254.44C531.73 254.44 531.31 254.8 530.84 255.97L526.77 266.62C525.88 269.02 525.26 268.98 524.44 269.02V267.8C525.66 267.8 526.26 267.02 527.53 263.82L524.37 255.97C523.9 254.79 523.44 254.44 523.44 254.44H525.82C525.82 254.44 525.44 255.13 525.78 255.97L528.18 262.13C528.85 260.37 529.89 257.68 530.54 255.97C530.87 255.13 530.07 254.44 530.07 254.44H531.73Z" fill="#0E2B39"/>
<path d="M539.22 261.88C539.22 259.77 532.8 259.7 532.8 256.86C532.8 254.97 534.69 254.17 536.22 254.17C538.87 254.17 539.8 255.48 539.8 255.48L538.98 256.55C538.98 256.55 538.89 254.37 536 254.44C534.89 254.46 533.73 255.06 533.73 256.31C533.73 258.6 540.35 258.29 540.35 261.18C540.35 263.63 537.84 264.25 536.33 264.25C533.55 264.25 532.71 262.83 532.71 262.83L533.58 261.74C533.58 261.74 533.98 264.07 536.56 263.99C537.97 263.93 539.22 263.35 539.22 261.88Z" fill="#0E2B39"/>
<path d="M544.44 262.44C544.44 263.22 545.06 263.97 545.06 263.97H542.5C542.5 263.97 543.12 263.21 543.12 262.44V256.97L542.03 257.59L541.9 257.32L543.12 256.63V251.89C543.12 251.09 542.5 250.33 542.5 250.33L544.43 249.4V255.87L545.52 255.25L545.65 255.49L544.43 256.2V262.44H544.44Z" fill="#0E2B39"/>
<path d="M547.29 261.88C547.29 258.83 553.34 257.88 553.34 257.88C553.34 255.68 553.14 254.39 551.29 254.43C549.96 254.45 549.58 255.65 549.58 255.65H548.2C548.2 255.65 548.69 254.16 551.58 254.16C553.96 254.16 554.65 255.09 554.65 257.56V262.43C554.65 263.21 555.29 263.96 555.29 263.96H553.33V262.87C553.33 262.87 551.86 264.23 550.13 264.23C548.6 264.24 547.29 263.55 547.29 261.88ZM548.78 261.86C548.78 265.19 552.43 263.51 553.34 262.53V258.2C553.34 258.19 548.78 259.33 548.78 261.86Z" fill="#0E2B39"/>
<path d="M570.17 260.33H569.55V262.42C569.55 263.22 570.17 263.98 570.17 263.98H567.61C567.61 263.98 568.23 263.22 568.23 262.42V260.33H562.45V260.04C562.47 260.02 566.01 257.79 566.01 249.68H567.41C567.19 256.51 564.08 259.17 562.9 260.04H568.24V258.11C568.24 257.31 567.62 256.58 567.62 256.58L569.55 255.65V260.05H570.17V260.33Z" fill="#0E2B39"/>
<path d="M571.95 250.39V250.19L573.95 249.41V262.41C573.95 263.21 574.57 263.97 574.57 263.97H572.01C572.01 263.97 572.63 263.21 572.63 262.41V250.38H571.95V250.39Z" fill="#0E2B39"/>
<path d="M578.48 262.6L576.79 265.96H576.57L577.19 262.6H578.48Z" fill="#0E2B39"/>
<path d="M585.82 261.55H587.2C587.2 261.55 587.45 263.97 590.6 263.93C591.98 263.91 594.18 262.84 593.93 259.35C593.71 256.15 591 255.48 588.62 256.42L588.51 256.17C591.24 255.13 592.82 253.57 593 252.3C593.22 250.7 592.07 249.63 590.67 249.68C587.78 249.77 588.02 252.64 588.02 252.64H586.62C586.62 252.64 586.6 249.39 590.89 249.42C592.82 249.44 594.36 250.73 594.18 252.33C594.07 253.35 593.18 254.51 590.62 255.62C593.27 255.42 595.27 256.87 595.49 259.36C595.71 261.78 593.49 264.25 590.2 264.25C586.24 264.24 585.82 261.55 585.82 261.55Z" fill="#0E2B39"/>
<path d="M596.85 256.84C596.85 252.75 599.07 249.42 602.74 249.42C606.05 249.42 608.76 252.04 608.76 256.8C608.76 260.73 606.51 264.25 602.85 264.25C599.54 264.24 596.85 260.93 596.85 256.84ZM598.36 257.3C598.72 261.1 600.49 263.68 603.36 263.68C605.85 263.68 607.38 260.23 607.25 256.41C607.12 252.39 605.05 249.9 602.2 249.96C599.72 250.04 598 253.53 598.36 257.3Z" fill="#0E2B39"/>
<path d="M618.64 258.24H610.99V257.95H618.64V258.24Z" fill="#0E2B39"/>
<path d="M625.48 264.24C621.63 264.24 621.08 261.55 621.08 261.55H622.48C622.48 261.55 622.68 264.02 625.84 263.93C627.37 263.89 629.26 262.84 629.26 259.35C629.26 255.19 623.97 254.19 621.52 256.64L621.23 256.62L622.72 249.68H630.01L629.63 251.35C629.63 251.35 629.25 250.71 628.47 250.71H622.8L621.64 256.09C625.2 253.56 630.8 255.2 630.8 259.56C630.82 261.84 628.77 264.24 625.48 264.24Z" fill="#0E2B39"/>
<path d="M641.54 249.68V249.99C640.67 251.06 635.85 257.3 635.85 263.97H634.16C634.16 259.39 638.58 253.23 640.56 250.7H633.27C632.47 250.7 632.09 251.34 632.09 251.34L631.71 249.67H641.54V249.68Z" fill="#0E2B39"/>
<path d="M642.65 250.39V250.19L644.65 249.41V262.41C644.65 263.21 645.27 263.97 645.27 263.97H642.71C642.71 263.97 643.33 263.21 643.33 262.41V250.38H642.65V250.39Z" fill="#0E2B39"/>
<path d="M660.99 263.97C660.99 263.97 661.26 263.55 660.59 262.57L655.99 255.72L654.54 257.1V262.41C654.54 263.21 655.16 263.97 655.16 263.97H652.6C652.6 263.97 653.22 263.21 653.22 262.41V251.23C653.22 250.43 652.6 249.67 652.6 249.67H655.16C655.16 249.67 654.54 250.43 654.54 251.23V256.7L660.23 251.23C661.05 250.43 660.56 249.67 660.56 249.67H662.58C662.58 249.67 661.36 250.56 660.65 251.23L656.94 254.79L662.05 262.41C662.76 263.48 663.54 263.97 663.54 263.97H660.99Z" fill="#0E2B39"/>
<path d="M664.73 255.37L666.66 254.44V256.33C666.66 256.33 667.06 254.17 669.17 254.17C671.37 254.17 671.55 255.66 671.55 255.66H670.17C670.17 255.66 669.86 254.73 668.88 254.75C667.48 254.77 666.66 256.26 666.66 257.75V262.44C666.66 263.22 667.28 263.97 667.28 263.97H664.72C664.72 263.97 665.34 263.21 665.34 262.44V256.9C665.35 256.1 664.73 255.37 664.73 255.37Z" fill="#0E2B39"/>
<path d="M672.2 261.88C672.2 258.83 678.25 257.88 678.25 257.88C678.25 255.68 678.05 254.39 676.2 254.43C674.87 254.45 674.49 255.65 674.49 255.65H673.11C673.11 255.65 673.6 254.16 676.49 254.16C678.87 254.16 679.56 255.09 679.56 257.56V262.43C679.56 263.21 680.2 263.96 680.2 263.96H678.24V262.87C678.24 262.87 676.77 264.23 675.04 264.23C673.51 264.24 672.2 263.55 672.2 261.88ZM673.69 261.86C673.69 265.19 677.34 263.51 678.25 262.53V258.2C678.25 258.19 673.69 259.33 673.69 261.86Z" fill="#0E2B39"/>
<path d="M687.71 263.97C687.71 263.97 687.96 263.33 687.31 262.44L684.49 258.55L683.73 259.17V262.44C683.73 263.22 684.35 263.97 684.35 263.97H681.79C681.79 263.97 682.41 263.21 682.41 262.44V251.9C682.41 251.1 681.79 250.34 681.79 250.34L683.72 249.41V258.77L687.19 255.97C688.12 255.19 687.68 254.55 687.59 254.44H689.77C689.77 254.44 688.5 255.28 687.68 255.95L685.48 257.73L690.02 263.98H687.71V263.97Z" fill="#0E2B39"/>
<path d="M690.76 259.19C690.76 256.41 692.96 254.17 695.65 254.17C698.36 254.17 700.56 256.42 700.56 259.19C700.56 261.99 698.36 264.24 695.65 264.24C692.96 264.24 690.76 262 690.76 259.19ZM692.23 259.24C692.56 261.82 694.28 263.86 696.28 263.86C698.28 263.86 699.44 261.82 699.1 259.24C698.77 256.66 697.03 254.55 695.05 254.55C693.05 254.55 691.9 256.66 692.23 259.24ZM694.63 252.88L697.43 250.32L698.39 251.3L694.81 253.01L694.63 252.88Z" fill="#0E2B39"/>
<path d="M715.42 254.44C715.42 254.44 715 254.8 714.53 255.95L711.4 264.11H711.09L708.42 257.22L705.75 264.11H705.44L702.28 255.97C701.81 254.79 701.32 254.44 701.32 254.44H703.7C703.7 254.44 703.32 255.13 703.66 255.97L706.13 262.31L708.24 256.8L707.93 255.98C707.49 254.8 706.97 254.45 706.97 254.45H709.37C709.37 254.45 708.99 255.14 709.33 255.98L711.78 262.34L714.23 255.98C714.56 255.14 713.74 254.45 713.74 254.45H715.42V254.44Z" fill="#0E2B39"/>
<path d="M438.23 276.36C438.23 276.36 437.65 277.12 437.65 277.92V290.66H436.98L427.6 277.61C427.58 277.72 427.56 277.81 427.56 277.92V289.1C427.56 289.9 428.14 290.66 428.14 290.66H426.67C426.67 290.66 427.25 289.9 427.25 289.1V277.92C427.25 277.5 427.12 277.08 427 276.79C426.89 276.52 426.8 276.37 426.8 276.37H428.29L437.34 288.95V277.92C437.34 277.12 436.76 276.36 436.76 276.36H438.23Z" fill="#0E2B39"/>
<path d="M440.23 276.36H442.81C442.81 276.36 442.19 277.12 442.19 277.92V289.1C442.19 289.9 442.81 290.66 442.81 290.66H440.23C440.23 290.66 440.87 289.9 440.87 289.1V277.92C440.88 277.12 440.23 276.36 440.23 276.36Z" fill="#0E2B39"/>
<path d="M454.02 280.43C454.02 281.92 453.46 284.7 447.62 284.7H446.78V289.1C446.78 289.9 447.42 290.66 447.42 290.66H444.82C444.82 290.66 445.46 289.9 445.46 289.1V277.92C445.46 277.12 444.82 276.36 444.82 276.36H447.71C452.75 276.36 454.02 278.74 454.02 280.43ZM452.49 280.43C452.49 277.85 450.27 276.65 447.62 276.65H446.78V284.41H447.62C452.13 284.41 452.49 282.05 452.49 280.43Z" fill="#0E2B39"/>
<path d="M454.93 283.54C455.44 283.54 455.86 283.96 455.86 284.47C455.86 284.98 455.44 285.4 454.93 285.4C454.42 285.4 454.02 284.98 454.02 284.47C454.02 283.96 454.42 283.54 454.93 283.54ZM454.93 290.86C454.42 290.86 454.02 290.44 454.02 289.93C454.02 289.42 454.42 289 454.93 289C455.44 289 455.86 289.42 455.86 289.93C455.87 290.43 455.44 290.86 454.93 290.86Z" fill="#0E2B39"/>
<path d="M467.83 290.92C463.98 290.92 463.43 288.23 463.43 288.23H464.83C464.83 288.23 465.03 290.7 468.19 290.61C469.72 290.57 471.61 289.52 471.61 286.03C471.61 281.87 466.32 280.87 463.87 283.32L463.58 283.3L465.07 276.36H472.36L471.98 278.03C471.98 278.03 471.6 277.39 470.82 277.39H465.15L463.99 282.77C467.55 280.24 473.15 281.88 473.15 286.24C473.16 288.52 471.12 290.92 467.83 290.92Z" fill="#0E2B39"/>
<path d="M483.88 276.36V276.67C483.01 277.74 478.19 283.98 478.19 290.65H476.5C476.5 286.07 480.92 279.91 482.9 277.38H475.61C474.81 277.38 474.43 278.02 474.43 278.02L474.05 276.35H483.88V276.36Z" fill="#0E2B39"/>
<path d="M490.7 287.01H490.08V289.1C490.08 289.9 490.7 290.66 490.7 290.66H488.14C488.14 290.66 488.76 289.9 488.76 289.1V287.01H482.98V286.72C483 286.7 486.54 284.47 486.54 276.36H487.94C487.72 283.19 484.61 285.85 483.43 286.72H488.77V284.79C488.77 283.99 488.15 283.26 488.15 283.26L490.08 282.33V286.73H490.7V287.01Z" fill="#0E2B39"/>
<path d="M500.8 284.92H493.15V284.63H500.8V284.92Z" fill="#0E2B39"/>
<path d="M503.25 277.07V276.87L505.25 276.09V289.09C505.25 289.89 505.87 290.65 505.87 290.65H503.31C503.31 290.65 503.93 289.89 503.93 289.09V277.06H503.25V277.07Z" fill="#0E2B39"/>
<path d="M510 290.94V290.67C512.89 289.89 515.05 287.78 516.16 284.62C515.43 285.13 514.38 285.64 512.87 285.69C509.71 285.78 507.65 283.82 507.65 281.04C507.65 278.33 509.54 276.1 512.87 276.1C520.56 276.12 519.76 289.25 510 290.94ZM516.56 280.96C516.27 278.54 514.89 276.4 512.43 276.47C509.78 276.54 509.16 279.05 509.16 281.07C509.16 283.05 510.38 285.38 513.03 285.29C514.38 285.25 516.9 284.05 516.56 280.96Z" fill="#0E2B39"/>
<path d="M527.32 287.01H526.7V289.1C526.7 289.9 527.32 290.66 527.32 290.66H524.76C524.76 290.66 525.38 289.9 525.38 289.1V287.01H519.6V286.72C519.62 286.7 523.16 284.47 523.16 276.36H524.56C524.34 283.19 521.23 285.85 520.05 286.72H525.39V284.79C525.39 283.99 524.77 283.26 524.77 283.26L526.7 282.33V286.73H527.32V287.01Z" fill="#0E2B39"/>
<path d="M537.42 284.92H529.77V284.63H537.42V284.92Z" fill="#0E2B39"/>
<path d="M549.02 276.36V276.67C548.15 277.74 543.33 283.98 543.33 290.65H541.64C541.64 286.07 546.06 279.91 548.04 277.38H540.75C539.95 277.38 539.57 278.02 539.57 278.02L539.19 276.35H549.02V276.36Z" fill="#0E2B39"/>
<path d="M551.83 290.94V290.67C554.72 289.89 556.88 287.78 557.99 284.62C557.26 285.13 556.21 285.64 554.7 285.69C551.54 285.78 549.48 283.82 549.48 281.04C549.48 278.33 551.37 276.1 554.7 276.1C562.39 276.12 561.58 289.25 551.83 290.94ZM558.38 280.96C558.09 278.54 556.71 276.4 554.25 276.47C551.6 276.54 550.98 279.05 550.98 281.07C550.98 283.05 552.2 285.38 554.85 285.29C556.21 285.25 558.72 284.05 558.38 280.96Z" fill="#0E2B39"/>
<path d="M569.75 284.92H562.1V284.63H569.75V284.92Z" fill="#0E2B39"/>
<path d="M581.35 276.36V276.67C580.48 277.74 575.66 283.98 575.66 290.65H573.97C573.97 286.07 578.39 279.91 580.37 277.38H573.08C572.28 277.38 571.9 278.02 571.9 278.02L571.52 276.35H581.35V276.36Z" fill="#0E2B39"/>
<path d="M582.46 277.07V276.87L584.46 276.09V289.09C584.46 289.89 585.08 290.65 585.08 290.65H582.52C582.52 290.65 583.14 289.89 583.14 289.09V277.06H582.46V277.07Z" fill="#0E2B39"/>
<path d="M434.9 303.33H432.01V315.78C432.01 316.58 432.63 317.34 432.63 317.34H430.07C430.07 317.34 430.69 316.58 430.69 315.78V303.33H427.8C426.76 303.33 426.09 304.4 426.09 304.4L426.25 302.91C426.25 302.91 427.01 303.04 427.81 303.04H434.9C435.7 303.04 436.46 302.91 436.46 302.91L436.62 304.4C436.61 304.4 435.94 303.33 434.9 303.33Z" fill="#0E2B39"/>
<path d="M437.83 310.22C438.34 310.22 438.76 310.64 438.76 311.15C438.76 311.66 438.34 312.08 437.83 312.08C437.32 312.08 436.92 311.66 436.92 311.15C436.92 310.64 437.32 310.22 437.83 310.22ZM437.83 317.54C437.32 317.54 436.92 317.12 436.92 316.61C436.92 316.1 437.32 315.68 437.83 315.68C438.34 315.68 438.76 316.1 438.76 316.61C438.77 317.11 438.34 317.54 437.83 317.54Z" fill="#0E2B39"/>
<path d="M455.49 303.04V303.35C454.62 304.42 449.8 310.66 449.8 317.33H448.11C448.11 312.75 452.53 306.59 454.51 304.06H447.22C446.42 304.06 446.04 304.7 446.04 304.7L445.66 303.03H455.49V303.04Z" fill="#0E2B39"/>
<path d="M455.82 314.91H457.2C457.2 314.91 457.45 317.33 460.6 317.29C461.98 317.27 464.18 316.2 463.93 312.71C463.71 309.51 461 308.84 458.62 309.78L458.51 309.53C461.24 308.49 462.82 306.93 463 305.66C463.22 304.06 462.07 302.99 460.67 303.04C457.78 303.13 458.02 306 458.02 306H456.62C456.62 306 456.6 302.75 460.89 302.78C462.82 302.8 464.36 304.09 464.18 305.69C464.07 306.71 463.18 307.87 460.62 308.98C463.27 308.78 465.27 310.23 465.49 312.72C465.71 315.14 463.49 317.61 460.2 317.61C456.24 317.6 455.82 314.91 455.82 314.91Z" fill="#0E2B39"/>
<path d="M466.85 314.91H468.23C468.23 314.91 468.48 317.33 471.63 317.29C473.01 317.27 475.21 316.2 474.96 312.71C474.74 309.51 472.03 308.84 469.65 309.78L469.54 309.53C472.27 308.49 473.85 306.93 474.03 305.66C474.25 304.06 473.1 302.99 471.7 303.04C468.81 303.13 469.05 306 469.05 306H467.65C467.65 306 467.63 302.75 471.92 302.78C473.85 302.8 475.39 304.09 475.21 305.69C475.1 306.71 474.21 307.87 471.65 308.98C474.3 308.78 476.3 310.23 476.52 312.72C476.74 315.14 474.52 317.61 471.23 317.61C467.27 317.6 466.85 314.91 466.85 314.91Z" fill="#0E2B39"/>
<path d="M483.43 314.91H484.81C484.81 314.91 485.06 317.33 488.21 317.29C489.59 317.27 491.79 316.2 491.54 312.71C491.32 309.51 488.61 308.84 486.23 309.78L486.12 309.53C488.85 308.49 490.43 306.93 490.61 305.66C490.83 304.06 489.68 302.99 488.28 303.04C485.39 303.13 485.63 306 485.63 306H484.23C484.23 306 484.21 302.75 488.5 302.78C490.43 302.8 491.97 304.09 491.79 305.69C491.68 306.71 490.79 307.87 488.23 308.98C490.88 308.78 492.88 310.23 493.1 312.72C493.32 315.14 491.1 317.61 487.81 317.61C483.86 317.6 483.43 314.91 483.43 314.91Z" fill="#0E2B39"/>
<path d="M494.46 314.91H495.84C495.84 314.91 496.09 317.33 499.24 317.29C500.62 317.27 502.82 316.2 502.57 312.71C502.35 309.51 499.64 308.84 497.26 309.78L497.15 309.53C499.88 308.49 501.46 306.93 501.64 305.66C501.86 304.06 500.71 302.99 499.31 303.04C496.42 303.13 496.66 306 496.66 306H495.26C495.26 306 495.24 302.75 499.53 302.78C501.46 302.8 503 304.09 502.82 305.69C502.71 306.71 501.82 307.87 499.26 308.98C501.91 308.78 503.91 310.23 504.13 312.72C504.35 315.14 502.13 317.61 498.84 317.61C494.89 317.6 494.46 314.91 494.46 314.91Z" fill="#0E2B39"/>
<path d="M514.65 303.04V303.35C513.78 304.42 508.96 310.66 508.96 317.33H507.27C507.27 312.75 511.69 306.59 513.67 304.06H506.38C505.58 304.06 505.2 304.7 505.2 304.7L504.82 303.03H514.65V303.04Z" fill="#0E2B39"/>
<path d="M521.32 303.75V303.55L523.32 302.77V315.77C523.32 316.57 523.94 317.33 523.94 317.33H521.38C521.38 317.33 522 316.57 522 315.77V303.74H521.32V303.75Z" fill="#0E2B39"/>
<path d="M535.04 315.69L534.84 317.34H525.5V317.05C528.83 312.29 533.04 308.62 533.3 306.36C533.5 304.71 532.72 303 530.01 303.05C527.59 303.09 527.14 306.01 527.14 306.01H525.76C525.76 306.01 526.01 302.79 530.25 302.79C533.79 302.79 534.94 305.26 534.7 306.84C534.34 309.11 532.3 310.15 527.14 317.07H532.43C534.39 317.05 535.04 315.69 535.04 315.69Z" fill="#0E2B39"/>
<path d="M536.6 303.75V303.55L538.6 302.77V315.77C538.6 316.57 539.22 317.33 539.22 317.33H536.66C536.66 317.33 537.28 316.57 537.28 315.77V303.74H536.6V303.75Z" fill="#0E2B39"/>
<path d="M432.59 344.02C432.59 344.02 432.84 343.38 432.19 342.49L429.37 338.6L428.61 339.22V342.49C428.61 343.27 429.23 344.02 429.23 344.02H426.67C426.67 344.02 427.29 343.26 427.29 342.49V331.95C427.29 331.15 426.67 330.39 426.67 330.39L428.6 329.46V338.82L432.07 336.02C433 335.24 432.56 334.6 432.47 334.49H434.65C434.65 334.49 433.38 335.33 432.56 336L430.36 337.78L434.9 344.03H432.59V344.02Z" fill="#0E2B39"/>
<path d="M435.92 341.93C435.92 338.88 441.97 337.93 441.97 337.93C441.97 335.73 441.77 334.44 439.92 334.48C438.59 334.5 438.21 335.7 438.21 335.7H436.83C436.83 335.7 437.32 334.21 440.21 334.21C442.59 334.21 443.28 335.14 443.28 337.61V342.48C443.28 343.26 443.92 344.01 443.92 344.01H441.96V342.92C441.96 342.92 440.49 344.28 438.76 344.28C437.23 344.28 435.92 343.59 435.92 341.93ZM437.41 341.9C437.41 345.23 441.06 343.55 441.97 342.57V338.24C441.97 338.24 437.41 339.37 437.41 341.9Z" fill="#0E2B39"/>
<path d="M445.53 335.41L447.49 334.48V336.21C448 335.12 449.31 334.21 450.69 334.21C452.34 334.21 454 335.08 454 337.68V342.48C454 343.26 454.65 344.01 454.65 344.01H452.05C452.05 344.01 452.69 343.25 452.69 342.48V337.66C452.69 333.9 447.49 333.97 447.49 337.66V342.48C447.49 343.26 448.13 344.01 448.13 344.01H445.53C445.53 344.01 446.17 343.25 446.17 342.48V336.94C446.17 336.15 445.53 335.41 445.53 335.41Z" fill="#0E2B39"/>
<path d="M456.02 339.24C456.02 336.46 458.33 334.22 461.16 334.22C463.78 334.22 464.67 335.71 464.67 335.71H463.22C463.22 335.71 462.66 334.55 460.77 334.55C458.7 334.55 457.23 336.93 457.5 339.46C457.75 341.88 459.35 343.91 461.55 343.91C462.51 343.91 463.68 343.44 464.26 342.75L464.46 342.88C463.68 343.75 462.39 344.28 460.88 344.28C458.15 344.28 456.02 342.42 456.02 339.24Z" fill="#0E2B39"/>
<path d="M467.29 338.33C467.27 338.46 467.27 338.57 467.27 338.71C467.27 344.96 472.52 344.69 474.38 342.2L474.58 342.33C474.58 342.33 473.45 344.29 470.45 344.29C467.69 344.29 465.78 342.2 465.78 339.2C465.78 336.42 467.67 334.22 470.74 334.22C472.14 334.22 474.94 335.11 474.94 338.04V338.33H467.29ZM467.32 338.04H473.57C473.57 335.95 472.32 334.48 470.44 334.48C468.89 334.48 467.56 336.04 467.32 338.04Z" fill="#0E2B39"/>
<path d="M476.56 330.39L478.49 329.46V342.49C478.49 343.27 479.11 344.02 479.11 344.02H476.55C476.55 344.02 477.17 343.26 477.17 342.49V331.95C477.19 331.14 476.56 330.39 476.56 330.39Z" fill="#0E2B39"/>
<path d="M480.74 341.93C480.74 338.88 486.79 337.93 486.79 337.93C486.79 335.73 486.59 334.44 484.74 334.48C483.41 334.5 483.03 335.7 483.03 335.7H481.65C481.65 335.7 482.14 334.21 485.03 334.21C487.41 334.21 488.1 335.14 488.1 337.61V342.48C488.1 343.26 488.74 344.01 488.74 344.01H486.78V342.92C486.78 342.92 485.31 344.28 483.58 344.28C482.05 344.28 480.74 343.59 480.74 341.93ZM482.23 341.9C482.23 345.23 485.88 343.55 486.79 342.57V338.24C486.79 338.24 482.23 339.37 482.23 341.9Z" fill="#0E2B39"/>
<path d="M490.35 335.41L492.28 334.48V336.37C492.28 336.37 492.68 334.21 494.79 334.21C496.99 334.21 497.17 335.7 497.17 335.7H495.79C495.79 335.7 495.48 334.77 494.5 334.79C493.1 334.81 492.28 336.3 492.28 337.79V342.48C492.28 343.26 492.9 344.01 492.9 344.01H490.34C490.34 344.01 490.96 343.25 490.96 342.48V336.94C490.97 336.15 490.35 335.41 490.35 335.41Z" fill="#0E2B39"/>
<path d="M498.49 335.41L500.45 334.48V342.48C500.45 343.26 501.09 344.01 501.09 344.01H498.49C498.49 344.01 499.13 343.25 499.13 342.48V336.57C499.13 335.79 498.49 335.41 498.49 335.41ZM498.77 331.1C498.77 330.59 499.19 330.17 499.7 330.17C500.21 330.17 500.63 330.59 500.63 331.1C500.63 331.61 500.21 332.03 499.7 332.03C499.2 332.03 498.77 331.61 498.77 331.1Z" fill="#0E2B39"/>
<path d="M502.73 341.93C502.73 338.88 508.78 337.93 508.78 337.93C508.78 335.73 508.58 334.44 506.73 334.48C505.4 334.5 505.02 335.7 505.02 335.7H503.64C503.64 335.7 504.13 334.21 507.02 334.21C509.4 334.21 510.09 335.14 510.09 337.61V342.48C510.09 343.26 510.73 344.01 510.73 344.01H508.77V342.92C508.77 342.92 507.3 344.28 505.57 344.28C504.04 344.28 502.73 343.59 502.73 341.93ZM504.22 341.9C504.22 345.23 507.87 343.55 508.78 342.57V338.24C508.78 338.24 504.22 339.37 504.22 341.9Z" fill="#0E2B39"/>
<path d="M519.65 331.86C524.32 331.82 527.03 334.51 526.9 338.77C526.79 342.46 524.12 344.31 521.79 343.39C521.17 343.14 520.79 342.59 520.83 341.54C520.83 341.54 519.79 343.12 518.45 343.21C516.56 343.34 515.38 341.5 515.76 339.14C516.2 336.43 518.21 334.81 520.09 334.81C520.69 334.81 521.36 335.05 521.78 335.72L523.07 335.36L522.05 341.78C521.58 344.74 525.9 343.51 526.05 338.78C526.18 334.51 524.07 332.04 519.56 332.11C516.27 332.15 513.11 334.6 513.05 339.36C512.96 345.45 519.61 348.12 523.72 345.16L523.85 345.36C522.72 346.16 521.34 346.63 519.85 346.65C515.56 346.72 512.02 343.94 512.11 339.38C512.2 335.26 515.32 331.9 519.65 331.86ZM520.9 340.99L521.37 338.14C521.79 335.63 520.79 334.98 519.88 335.01C518.48 335.05 517.26 336.92 517.01 339.08C516.77 341.21 517.34 342.9 518.72 342.86C519.34 342.84 520.34 341.95 520.9 340.99Z" fill="#0E2B39"/>
<path d="M542.08 342.48V337.66C542.08 333.9 536.9 334.04 536.9 337.77V342.48C536.9 343.26 537.54 344.01 537.54 344.01H534.94C534.94 344.01 535.58 343.25 535.58 342.48V337.66C535.58 333.9 530.4 333.97 530.4 337.66V342.48C530.4 343.26 531.04 344.01 531.04 344.01H528.44C528.44 344.01 529.08 343.25 529.08 342.48V336.94C529.08 336.14 528.44 335.41 528.44 335.41L530.4 334.48V336.21C530.91 335.12 532.2 334.21 533.56 334.21C534.96 334.21 536.34 334.81 536.76 336.52C537.18 335.14 538.74 334.21 540.05 334.21C541.72 334.21 543.38 335.08 543.38 337.68V342.48C543.38 343.26 544.02 344.01 544.02 344.01H541.42C541.44 344.02 542.08 343.26 542.08 342.48Z" fill="#0E2B39"/>
<path d="M545.64 330.39L547.57 329.46V342.49C547.57 343.27 548.19 344.02 548.19 344.02H545.63C545.63 344.02 546.25 343.26 546.25 342.49V331.95C546.27 331.14 545.64 330.39 545.64 330.39Z" fill="#0E2B39"/>
<path d="M557.69 334.48C557.69 334.48 557.27 334.84 556.8 336.01L552.73 346.66C551.84 349.06 551.22 349.02 550.4 349.06V347.84C551.62 347.84 552.22 347.06 553.49 343.86L550.33 336.01C549.86 334.83 549.4 334.48 549.4 334.48H551.78C551.78 334.48 551.4 335.17 551.74 336.01L554.14 342.17C554.81 340.41 555.85 337.72 556.5 336.01C556.83 335.17 556.03 334.48 556.03 334.48H557.69Z" fill="#0E2B39"/>
<path d="M558.89 335.41L560.85 334.48V336.21C561.36 335.12 562.67 334.21 564.05 334.21C565.7 334.21 567.36 335.08 567.36 337.68V342.48C567.36 343.26 568.01 344.01 568.01 344.01H565.41C565.41 344.01 566.05 343.25 566.05 342.48V337.66C566.05 333.9 560.85 333.97 560.85 337.66V342.48C560.85 343.26 561.49 344.01 561.49 344.01H558.89C558.89 344.01 559.53 343.25 559.53 342.48V336.94C559.54 336.15 558.89 335.41 558.89 335.41Z" fill="#0E2B39"/>
<path d="M569.46 341.93C569.46 338.88 575.51 337.93 575.51 337.93C575.51 335.73 575.31 334.44 573.46 334.48C572.13 334.5 571.75 335.7 571.75 335.7H570.37C570.37 335.7 570.86 334.21 573.75 334.21C576.13 334.21 576.82 335.14 576.82 337.61V342.48C576.82 343.26 577.46 344.01 577.46 344.01H575.5V342.92C575.5 342.92 574.03 344.28 572.3 344.28C570.77 344.28 569.46 343.59 569.46 341.93ZM570.95 341.9C570.95 345.23 574.6 343.55 575.51 342.57V338.24C575.5 338.24 570.95 339.37 570.95 341.9Z" fill="#0E2B39"/>
<path d="M579.06 335.41L580.99 334.48V336.37C580.99 336.37 581.39 334.21 583.5 334.21C585.7 334.21 585.88 335.7 585.88 335.7H584.5C584.5 335.7 584.19 334.77 583.21 334.79C581.81 334.81 580.99 336.3 580.99 337.79V342.48C580.99 343.26 581.61 344.01 581.61 344.01H579.05C579.05 344.01 579.67 343.25 579.67 342.48V336.94C579.68 336.15 579.06 335.41 579.06 335.41Z" fill="#0E2B39"/>
<path d="M593.29 341.93C593.29 339.82 586.87 339.75 586.87 336.91C586.87 335.02 588.76 334.22 590.29 334.22C592.94 334.22 593.87 335.53 593.87 335.53L593.05 336.6C593.05 336.6 592.96 334.42 590.07 334.49C588.96 334.51 587.8 335.11 587.8 336.36C587.8 338.65 594.42 338.34 594.42 341.23C594.42 343.68 591.91 344.3 590.4 344.3C587.62 344.3 586.78 342.88 586.78 342.88L587.65 341.79C587.65 341.79 588.05 344.12 590.63 344.04C592.04 343.97 593.29 343.39 593.29 341.93Z" fill="#0E2B39"/>
<path d="M601.89 344.02C601.89 344.02 602.14 343.38 601.49 342.49L598.67 338.6L597.91 339.22V342.49C597.91 343.27 598.53 344.02 598.53 344.02H595.97C595.97 344.02 596.59 343.26 596.59 342.49V331.95C596.59 331.15 595.97 330.39 595.97 330.39L597.9 329.46V338.82L601.37 336.02C602.3 335.24 601.86 334.6 601.77 334.49H603.95C603.95 334.49 602.68 335.33 601.86 336L599.66 337.78L604.2 344.03H601.89V344.02Z" fill="#0E2B39"/>
<path d="M605.23 341.93C605.23 338.88 611.28 337.93 611.28 337.93C611.28 335.73 611.08 334.44 609.23 334.48C607.9 334.5 607.52 335.7 607.52 335.7H606.14C606.14 335.7 606.63 334.21 609.52 334.21C611.9 334.21 612.59 335.14 612.59 337.61V342.48C612.59 343.26 613.23 344.01 613.23 344.01H611.27V342.92C611.27 342.92 609.8 344.28 608.07 344.28C606.54 344.28 605.23 343.59 605.23 341.93ZM606.72 341.9C606.72 345.23 610.37 343.55 611.28 342.57V338.24C611.28 338.24 606.72 339.37 606.72 341.9Z" fill="#0E2B39"/>
<path d="M615.06 343.28C615.06 342.77 615.48 342.35 615.99 342.35C616.5 342.35 616.92 342.77 616.92 343.28C616.92 343.79 616.5 344.21 615.99 344.21C615.48 344.22 615.06 343.79 615.06 343.28Z" fill="#0E2B39"/>
<path d="M617.81 339.24C617.81 336.46 620.12 334.22 622.95 334.22C625.57 334.22 626.46 335.71 626.46 335.71H625.01C625.01 335.71 624.45 334.55 622.56 334.55C620.49 334.55 619.02 336.93 619.29 339.46C619.54 341.88 621.14 343.91 623.34 343.91C624.3 343.91 625.47 343.44 626.05 342.75L626.25 342.88C625.47 343.75 624.18 344.28 622.67 344.28C619.95 344.28 617.81 342.42 617.81 339.24Z" fill="#0E2B39"/>
<path d="M627.57 339.24C627.57 336.46 629.77 334.22 632.46 334.22C635.17 334.22 637.37 336.47 637.37 339.24C637.37 342.04 635.17 344.29 632.46 344.29C629.77 344.28 627.57 342.04 627.57 339.24ZM629.04 339.28C629.37 341.86 631.08 343.9 633.09 343.9C635.1 343.9 636.25 341.86 635.91 339.28C635.58 336.7 633.84 334.59 631.86 334.59C629.86 334.59 628.71 336.7 629.04 339.28Z" fill="#0E2B39"/>
<path d="M652.56 342.48V337.66C652.56 333.9 647.38 334.04 647.38 337.77V342.48C647.38 343.26 648.02 344.01 648.02 344.01H645.42C645.42 344.01 646.06 343.25 646.06 342.48V337.66C646.06 333.9 640.88 333.97 640.88 337.66V342.48C640.88 343.26 641.52 344.01 641.52 344.01H638.92C638.92 344.01 639.56 343.25 639.56 342.48V336.94C639.56 336.14 638.92 335.41 638.92 335.41L640.88 334.48V336.21C641.39 335.12 642.68 334.21 644.04 334.21C645.44 334.21 646.82 334.81 647.24 336.52C647.66 335.14 649.22 334.21 650.53 334.21C652.2 334.21 653.86 335.08 653.86 337.68V342.48C653.86 343.26 654.5 344.01 654.5 344.01H651.9C651.92 344.02 652.56 343.26 652.56 342.48Z" fill="#0E2B39"/>
</svg>
